Patient4_TMGait_0pt7_01_right_15_EMG.mot
version=1
nRows=23
nColumns=33
inDegrees=no
endheader
time	1LAddLong	2LGlutMax	3LGlutMed	4LIliopsoas	5LSemiMemb	6LBicFemLong	7LRecFem	8LVastMed	9LVastLat	10LGasMed	11LTibAnt	12lTibPost	13LPeroneusLong	14LSol	15LExtDigLong	16LFlexDigLong	17RAddLong	18RGlutMax	19RGlutMed	20RIliopsoas	21RSemiMemb	22RBicFemLong	23RRecFem	24RVastMed	25RVastLat	26RGasMed	27RTibAnt	28RTibPost	29RPeroneusLong	30RSol	31RExtDigLong	32RFlexDigLong
17.032	-0.019226	-0.19028	-0.13397	0.006104	0.01358	-0.019836	0.14755	0.031281	-0.05661	-0.018005	0.073242	0.008392	-0.046234	0.079193	0.14832	-0.033264	0.0383	-0.22171	-0.7547	0.032043	0.039368	-0.43076	-0.29816	-0.15656	0.056	0.18692	0.065613	0.039215	0.18219	0.53116	0.001678	-0.02243
17.033	-0.014191	-0.2269	-0.16937	0.008392	0.00885	-0.010529	0.18845	0.025787	-0.073547	-0.034485	-0.067444	0.000153	-0.026703	0.057068	-0.8635	-0.039825	0.040436	-0.1358	-0.48813	0.18463	0.002441	-0.28397	-0.18188	-0.067139	-0.17151	0.12192	0.061188	-0.014801	0.082703	-0.08194	-0.00412	-0.033875
17.034	-0.018616	-0.21255	-0.17441	0.007782	0.017395	-0.012817	0.25879	0.021515	-0.077667	-0.040588	-0.12878	-0.000916	-0.053711	-0.025635	-0.87616	-0.035858	0.038605	-0.096893	-0.2945	0.30838	-0.069275	-0.23651	-0.031433	0.029297	-0.36194	0.067749	0.16525	-0.057983	0.046997	-0.63385	-0.005035	-0.031433
17.035	-0.011292	-0.23422	-0.15991	-0.014954	0.019379	0.002136	0.25391	0.015106	-0.076599	-0.074921	0.002441	0.005035	-0.083466	-0.051727	-0.43915	-0.03006	0.080109	-0.045166	-0.36941	0.21179	-0.39398	-0.39536	0.23438	-0.12589	-0.52017	0.062256	0.14191	-0.072174	0.10269	-0.24017	0.002899	-0.01709
17.036	-0.014038	-0.15808	-0.18265	-0.016632	0.019836	-0.001373	0.159	0.01297	-0.10269	-0.048981	0.01236	0.001984	-0.1619	0.015717	-0.075073	-0.05188	0.13596	0.016479	-0.33081	0.10696	-0.59082	-0.45532	0.38742	-0.092773	-0.72891	0.050812	0.26489	-0.021515	0.20309	0.11581	-0.001831	-0.012512
17.037	-0.017853	-0.16007	-0.24216	-0.004425	0.020599	-0.030518	0.02533	0.015411	-0.092316	-0.06485	0.070801	-0.011444	-0.16586	-0.01236	0.46341	-0.00885	0.12833	0.025024	-0.37781	0.080109	-0.65765	-0.44403	0.33066	-0.097809	-0.72144	0.053864	0.22018	-0.016785	0.29999	0.2446	-0.005798	-0.020447
17.038	-0.014343	-0.17273	-0.28305	-0.005951	0.017395	-0.016174	0.1474	0.012207	-0.085144	-0.089417	0.15518	0.009155	-0.080109	-0.011597	-0.059662	-0.006561	0.072632	0.016937	-0.32883	0.04364	0.064392	-0.49667	0.42252	-0.019073	-0.54779	0.048523	0.012512	-0.009613	0.18433	0.40131	0	-0.02594
17.039	-0.009613	-0.21423	-0.28137	0.016174	0.000458	-0.010834	0.25284	0.013123	-0.084381	-0.098724	-0.02533	-0.005798	-0.007324	-0.024261	-0.19577	0.011292	0.065155	0.049896	-0.32455	0.048218	0.023346	-0.40832	0.38437	-0.060883	-0.41992	0.010071	-0.26016	-0.002747	0.22415	0.090637	-0.000916	-0.029907
17.04	-0.017242	-0.23117	-0.26581	0.053711	0.008698	-0.013733	0.24857	0.014954	-0.083313	-0.036316	-0.062714	0.007019	-0.032043	-0.011597	0.28244	-0.013428	-0.04303	-0.054169	-0.39444	-0.028534	-0.22705	-0.14481	0.34653	-0.11612	-0.36377	-0.083923	-0.57053	-0.020905	-0.25238	-0.089111	-0.002747	-0.036774
17.041	-0.011597	-0.26062	-0.3241	0.033112	0.012054	-0.009918	0.26413	0.019073	-0.054474	-0.003662	-0.054474	-0.002594	-0.11032	0.10284	0.035248	-0.012665	-0.090637	-0.15701	-0.053253	-0.087433	0.1033	-0.1973	0.33569	-0.001526	-0.29221	-0.14496	-0.32135	-0.085754	-1.2804	-0.32471	-0.005188	-0.041809
17.042	-0.00351	-0.27679	-0.33981	0.00061	0.005188	-0.019226	0.21606	0.008087	-0.075073	-0.003052	-0.088196	-0.008545	-0.089874	0.030518	-0.33691	-0.015564	-0.075989	-0.24124	-0.29556	-0.14374	0.24979	-0.13977	0.42007	0.08255	-0.21286	-0.082092	0.002747	-0.091248	-0.3122	-0.37033	-0.004578	-0.038147
17.043	-0.006104	-0.19806	-0.31952	-0.025635	0.020142	-0.019073	0.20279	0.006561	-0.07782	0.021362	0.071106	0.001373	-0.11185	-0.027313	-0.33035	-0.018311	-0.12299	-0.15457	-0.73532	-0.1294	0.20477	-0.32272	0.33295	0.17532	-0.15991	-0.21286	0.051727	-0.090179	0.77331	-0.1152	-0.006409	-0.038452
17.044	0.002747	-0.17868	-0.27649	-0.014343	0.005188	-0.028229	0.22369	0.00885	-0.065002	0.027771	0.17273	-0.000305	-0.13504	-0.064545	-0.10223	-0.007935	-0.085144	-0.31052	-0.6955	-0.047913	0.38422	-0.65338	0.38834	0.11032	-0.11353	-0.22873	-0.017395	-0.095673	0.20294	0.069427	0.003815	-0.032654
17.045	0.00351	-0.1181	-0.25772	-0.023193	0.013428	-0.032501	0.088959	0.00351	-0.036926	-0.010986	0.04776	-0.005646	-0.070801	0.026093	0.046234	-0.005188	-0.031738	-0.336	-0.51926	0.05188	0.33569	-0.49683	0.4361	0.004578	-0.12497	0.039368	-0.056	-0.10941	-0.24643	0.19684	-0.009766	-0.018311
17.046	-0.001221	-0.098724	-0.32074	-0.02594	0.019684	-0.046997	-0.14328	-0.000153	-0.042419	-0.042877	-0.014191	0.005188	-0.013885	0.059662	0.15518	0.001831	0.019531	-0.46158	-0.52963	0.15137	0.17487	-0.36499	0.56625	-0.031281	-0.15671	0.074921	-0.023499	-0.19211	-0.006409	0.20615	-0.007019	-0.023804
17.047	-0.002441	-0.053101	-0.35477	-0.02533	0.012207	-0.039825	-0.10956	0.003204	-0.024719	-0.016937	0.007324	-0.007477	-0.091095	0.071564	0.36057	-0.00412	0.021362	-0.53574	-0.47882	0.14343	-0.017395	-0.55222	0.54825	-0.02182	-0.13184	0.0177	-0.071564	-0.38208	0.1387	-0.035706	-0.014801	-0.015869
17.048	-0.013733	0.000916	-0.34592	-0.015869	0.01297	-0.05249	0.007782	-0.000458	-0.033722	0.014191	0.00412	-0.000458	-0.13275	-0.099182	0.25192	-0.011902	-0.007782	-0.81375	-0.44876	0.10452	-0.06546	-0.32532	0.46219	0.058899	-0.041199	-0.082703	0.026093	0.2739	0.51468	0.078888	-0.00824	-0.023651
17.049	-0.019531	0.056763	-0.37872	-0.016327	0.0177	-0.050507	0.020294	-0.005951	-0.039978	0.021057	0.021667	-0.004425	-0.11887	-0.15869	0.30212	0.006256	0.049744	-0.88669	-0.75226	0.075836	-0.063019	0.10742	0.46661	0.098419	-0.001984	-0.19089	0.10666	0.17563	0.70007	0.64056	-0.015259	-0.021515
17.05	-0.013733	0.10651	-0.40268	-0.038147	0.020447	-0.046844	0.059357	-0.003815	-0.047455	0.011902	-0.00061	-0.002594	-0.093536	-0.09613	-0.06897	0.010223	0.071564	-0.96756	-0.98648	0.022583	0.022736	0.076294	0.48248	0.11887	0.000458	-0.29358	-0.007477	0.1384	0.45425	1.0475	-0.012817	-0.006714
17.051	-0.015411	0.19318	-0.35614	-0.014038	0.031433	-0.041351	0.12344	0.026093	-0.029907	0.019073	-0.062561	0.001831	-0.064087	-0.064087	0.046539	0.000153	0.090179	-1.1642	-1.0757	0.024872	0.22293	-0.16083	0.46555	0.18295	0.008698	-0.2182	-0.018768	-0.097198	-0.68863	0.69458	-0.00885	-0.002899
17.052	-0.013275	0.31372	-0.38345	0.022125	0.015564	-0.035553	0.15686	0.007935	-0.023041	0.022583	0.070343	0	-0.12756	-0.042419	0.19348	0.016479	0.029449	-1.3307	-1.1485	0.006714	-0.27588	-0.24063	0.41657	0.17441	-0.007324	-0.003052	0.079041	0.070496	-0.26169	-0.17502	-0.022125	-0.002289
17.053	-0.019073	0.41077	-0.43182	0.044098	0.028992	-0.042114	0.26596	0.007172	-0.04303	0.039063	0.121	-0.001373	-0.14801	0.038605	0.47165	0.010223	-0.050659	-1.5727	-1.3277	0.014648	-0.32227	-0.24216	0.1799	0.20783	0.034637	0.028534	0.0737	0.12756	0.3833	-0.48645	-0.019073	-0.012054
17.054	-0.022888	0.47043	-0.40344	0.038452	0.014648	-0.029755	0.30395	-0.011444	-0.030975	0.042725	0.16129	0.009155	-0.11459	-0.04364	-0.13687	0.008698	-0.074921	-1.7265	-1.2064	-0.016785	-0.12741	-0.33829	0.12909	0.18326	0.059052	0.067596	0.11368	0.092926	-0.044403	-0.2002	-0.024567	-0.006714
